Coordinates
version=1
nRows=9
nColumns=24
inDegrees=yes

Units are S.I. units (second, meters, Newtons, ...)
Angles are in degrees.

endheader
time	pelvis_tilt	pelvis_list	pelvis_rotation	pelvis_tx	pelvis_ty	pelvis_tz	hip_flexion_r	hip_adduction_r	hip_rotation_r	knee_angle_r	ankle_angle_r	subtalar_angle_r	mtp_angle_r	hip_flexion_l	hip_adduction_l	hip_rotation_l	knee_angle_l	ankle_angle_l	subtalar_angle_l	mtp_angle_l	lumbar_extension	lumbar_bending	lumbar_rotation
      1.00800000	     -0.97967123	     -2.33365864	     -0.58841482	     -0.08448531	      1.03974743	      0.33424164	    -12.87665833	      5.06914712	     -3.74570469	     -9.43773499	     20.07684565	      5.11331561	      7.92397812	     26.56373694	     -2.07060958	     -1.76304991	     -4.21670171	      8.04556308	      9.30573442	      4.74297025	    -20.45024601	      6.09817168	      4.88100213
      1.01216667	     -0.91359558	     -2.31350001	     -0.67298010	     -0.07845180	      1.03893994	      0.33420578	    -13.06456630	      4.98416823	     -3.75374601	     -9.96297183	     20.25685546	      5.30584445	      7.98550234	     26.60000796	     -1.98904995	     -1.68008597	     -4.73007731	      7.99857056	      9.19027067	      4.76730141	    -20.49401970	      5.95194998	      4.86012696
      1.01633333	     -0.87896787	     -2.28234107	     -0.74672771	     -0.07234633	      1.03809538	      0.33412603	    -13.19800309	      4.87837599	     -3.86599264	    -10.53914783	     20.41299511	      5.62022751	      8.08587273	     26.67950977	     -1.89282781	     -1.60929337	     -5.32354166	      7.87538357	      9.03526794	      4.80980451	    -20.47024377	      5.80635195	      4.84204442
      1.02050000	     -0.79908012	     -2.23330583	     -0.82979060	     -0.06621769	      1.03738657	      0.33407768	    -13.37334200	      4.75064684	     -3.94333080	    -11.12913695	     20.53815608	      5.89280566	      8.21707832	     26.69397957	     -1.78591768	     -1.52633806	     -5.94464694	      7.72256167	      8.86908719	      4.86642739	    -20.51265880	      5.62455427	      4.81391453
      1.02466667	     -0.73475454	     -2.20157146	     -0.90753497	     -0.06006074	      1.03668936	      0.33406072	    -13.54965927	      4.65513174	     -3.88250074	    -11.68029492	     20.54190321	      5.90560483	      8.24606337	     26.73934788	     -1.70126150	     -1.44980550	     -6.64258151	      7.56089346	      8.73596309	      4.87600192	    -20.54322881	      5.46668190	      4.78552000
      1.02883333	     -0.72561398	     -2.14503355	     -1.01152079	     -0.05387034	      1.03592215	      0.33403269	    -13.58818276	      4.50091320	     -4.01756641	    -12.40801405	     20.72442087	      6.33658652	      8.39737220	     26.82775535	     -1.59907725	     -1.33140974	     -7.35757160	      7.32175615	      8.48646126	      4.93178879	    -20.47811523	      5.25453884	      4.74903809
      1.03300000	     -0.62280901	     -2.06824450	     -1.08191074	     -0.04763127	      1.03537170	      0.33396197	    -13.75544408	      4.33288524	     -4.13704463	    -13.06802625	     20.69842783	      6.60323590	      9.76212992	     26.78429127	     -1.45913913	     -1.11858739	     -8.03716806	      6.94110776	      8.05221236	      5.46993974	    -20.52985968	      5.03975450	      4.66804144
      1.03716667	     -0.63781082	     -2.03908925	     -1.17428926	     -0.04139427	      1.03464448	      0.33393562	    -13.76402985	      4.21638714	     -4.16829447	    -13.79755730	     20.70839227	      6.81306020	      9.86012750	     26.93668494	     -1.39382591	     -1.05788703	     -8.90239179	      6.72171987	      7.92796391	      5.49485499	    -20.43389536	      4.87063081	      4.66231867
      1.04133333	     -0.60063513	     -1.96970425	     -1.26972530	     -0.03511112	      1.03406314	      0.33389094	    -13.80968461	      4.04335518	     -4.25680573	    -14.56879768	     20.68308009	      7.10474802	     10.00530923	     26.99818996	     -1.28673954	     -0.96366477	     -9.72266453	      6.38943063	      7.68125441	      5.52312198	    -20.40578484	      4.65071883	      4.61746364
